<svg xmlns="http://www.w3.org/2000/svg" viewBox="0 0 32 32">
  <!-- Black background -->
  <rect width="32" height="32" fill="#000000"/>

  <!-- Pixel art "S" (5x7 pixels, starting at x=2, y=4) -->
  <rect x="4" y="4" width="2" height="2" fill="#FFFFFF"/>
  <rect x="6" y="4" width="2" height="2" fill="#FFFFFF"/>
  <rect x="8" y="4" width="2" height="2" fill="#FFFFFF"/>
  <rect x="2" y="6" width="2" height="2" fill="#FFFFFF"/>
  <rect x="4" y="8" width="2" height="2" fill="#FFFFFF"/>
  <rect x="6" y="8" width="2" height="2" fill="#FFFFFF"/>
  <rect x="8" y="10" width="2" height="2" fill="#FFFFFF"/>
  <rect x="2" y="12" width="2" height="2" fill="#FFFFFF"/>
  <rect x="4" y="12" width="2" height="2" fill="#FFFFFF"/>
  <rect x="6" y="12" width="2" height="2" fill="#FFFFFF"/>

  <!-- Pixel art "T" (5x7 pixels, starting at x=12) -->
  <rect x="12" y="4" width="2" height="2" fill="#FFFFFF"/>
  <rect x="14" y="4" width="2" height="2" fill="#FFFFFF"/>
  <rect x="16" y="4" width="2" height="2" fill="#FFFFFF"/>
  <rect x="18" y="4" width="2" height="2" fill="#FFFFFF"/>
  <rect x="20" y="4" width="2" height="2" fill="#FFFFFF"/>
  <rect x="16" y="6" width="2" height="2" fill="#FFFFFF"/>
  <rect x="16" y="8" width="2" height="2" fill="#FFFFFF"/>
  <rect x="16" y="10" width="2" height="2" fill="#FFFFFF"/>
  <rect x="16" y="12" width="2" height="2" fill="#FFFFFF"/>

  <!-- Pixel art "A" (5x7 pixels, starting at x=22) - simplified -->
  <rect x="24" y="4" width="2" height="2" fill="#FFFFFF"/>
  <rect x="26" y="4" width="2" height="2" fill="#FFFFFF"/>
  <rect x="22" y="6" width="2" height="2" fill="#FFFFFF"/>
  <rect x="28" y="6" width="2" height="2" fill="#FFFFFF"/>
  <rect x="22" y="8" width="2" height="2" fill="#FFFFFF"/>
  <rect x="24" y="8" width="2" height="2" fill="#FFFFFF"/>
  <rect x="26" y="8" width="2" height="2" fill="#FFFFFF"/>
  <rect x="28" y="8" width="2" height="2" fill="#FFFFFF"/>
  <rect x="22" y="10" width="2" height="2" fill="#FFFFFF"/>
  <rect x="28" y="10" width="2" height="2" fill="#FFFFFF"/>
  <rect x="22" y="12" width="2" height="2" fill="#FFFFFF"/>
  <rect x="28" y="12" width="2" height="2" fill="#FFFFFF"/>

  <!-- Row 2: NSE -->
  <!-- Pixel art "N" (starting at x=2, y=18) -->
  <rect x="2" y="18" width="2" height="2" fill="#FFFFFF"/>
  <rect x="8" y="18" width="2" height="2" fill="#FFFFFF"/>
  <rect x="2" y="20" width="2" height="2" fill="#FFFFFF"/>
  <rect x="4" y="20" width="2" height="2" fill="#FFFFFF"/>
  <rect x="8" y="20" width="2" height="2" fill="#FFFFFF"/>
  <rect x="2" y="22" width="2" height="2" fill="#FFFFFF"/>
  <rect x="6" y="22" width="2" height="2" fill="#FFFFFF"/>
  <rect x="8" y="22" width="2" height="2" fill="#FFFFFF"/>
  <rect x="2" y="24" width="2" height="2" fill="#FFFFFF"/>
  <rect x="8" y="24" width="2" height="2" fill="#FFFFFF"/>
  <rect x="2" y="26" width="2" height="2" fill="#FFFFFF"/>
  <rect x="8" y="26" width="2" height="2" fill="#FFFFFF"/>

  <!-- Pixel art "S" (starting at x=12, y=18) -->
  <rect x="14" y="18" width="2" height="2" fill="#FFFFFF"/>
  <rect x="16" y="18" width="2" height="2" fill="#FFFFFF"/>
  <rect x="18" y="18" width="2" height="2" fill="#FFFFFF"/>
  <rect x="12" y="20" width="2" height="2" fill="#FFFFFF"/>
  <rect x="14" y="22" width="2" height="2" fill="#FFFFFF"/>
  <rect x="16" y="22" width="2" height="2" fill="#FFFFFF"/>
  <rect x="18" y="24" width="2" height="2" fill="#FFFFFF"/>
  <rect x="12" y="26" width="2" height="2" fill="#FFFFFF"/>
  <rect x="14" y="26" width="2" height="2" fill="#FFFFFF"/>
  <rect x="16" y="26" width="2" height="2" fill="#FFFFFF"/>

  <!-- Pixel art "E" (starting at x=22, y=18) -->
  <rect x="22" y="18" width="2" height="2" fill="#FFFFFF"/>
  <rect x="24" y="18" width="2" height="2" fill="#FFFFFF"/>
  <rect x="26" y="18" width="2" height="2" fill="#FFFFFF"/>
  <rect x="28" y="18" width="2" height="2" fill="#FFFFFF"/>
  <rect x="22" y="20" width="2" height="2" fill="#FFFFFF"/>
  <rect x="22" y="22" width="2" height="2" fill="#FFFFFF"/>
  <rect x="24" y="22" width="2" height="2" fill="#FFFFFF"/>
  <rect x="26" y="22" width="2" height="2" fill="#FFFFFF"/>
  <rect x="22" y="24" width="2" height="2" fill="#FFFFFF"/>
  <rect x="22" y="26" width="2" height="2" fill="#FFFFFF"/>
  <rect x="24" y="26" width="2" height="2" fill="#FFFFFF"/>
  <rect x="26" y="26" width="2" height="2" fill="#FFFFFF"/>
  <rect x="28" y="26" width="2" height="2" fill="#FFFFFF"/>
</svg>
