<svg xmlns="http://www.w3.org/2000/svg" viewBox="0 0 2880 1000">
  <g transform="translate(0, 750) scale(1, -1)" fill="#000000">
    <path transform="translate(0, 0)" d="M364 200Q364 177 360 160Q364 144 364 120Q364 97 360 80H320Q324 64 324 40Q324 17 320 0H80Q76 17 76 40Q76 64 80 80H40Q36 97 36 120Q36 144 40 160H120Q124 144 124 120Q124 97 120 80H280Q276 97 276 120Q276 144 280 160Q276 177 276 200Q276 224 280 240H80Q76 257 76 280Q76 304 80 320H40Q36 337 36 360Q36 384 40 400Q36 417 36 440Q36 464 40 480H80Q76 497 76 520Q76 544 80 560H320Q324 544 324 520Q324 497 320 480H360Q364 464 364 440Q364 417 360 400H280Q276 417 276 440Q276 464 280 480H120Q124 464 124 440Q124 417 120 400Q124 384 124 360Q124 337 120 320H320Q324 304 324 280Q324 257 320 240H360Q364 224 364 200Z"/>
    <path transform="translate(480, 0)" d="M360 480H240Q244 464 244 440Q244 417 240 400Q244 384 244 360Q244 337 240 320Q244 304 244 280Q244 257 240 240Q244 224 244 200Q244 177 240 160Q244 144 244 120Q244 97 240 80Q244 64 244 40Q244 17 240 0H160Q156 17 156 40Q156 64 160 80Q156 97 156 120Q156 144 160 160Q156 177 156 200Q156 224 160 240Q156 257 156 280Q156 304 160 320Q156 337 156 360Q156 384 160 400Q156 417 156 440Q156 464 160 480H40Q36 497 36 520Q36 544 40 560H360Q364 544 364 520Q364 497 360 480Z"/>
    <path transform="translate(960, 0)" d="M360 80Q364 64 364 40Q364 17 360 0H280Q276 17 276 40Q276 64 280 80Q276 97 276 120Q276 144 280 160H120Q124 144 124 120Q124 97 120 80Q124 64 124 40Q124 17 120 0H40Q36 17 36 40Q36 64 40 80Q36 97 36 120Q36 144 40 160H70Q66 177 66 200Q66 224 70 240Q66 257 66 280Q66 304 70 320H90Q86 337 86 360Q86 384 90 400H120Q116 417 116 440Q116 464 120 480H140Q136 497 136 520Q136 544 140 560H260Q264 544 264 520Q264 497 260 480H280Q284 464 284 440Q284 417 280 400H310Q314 384 314 360Q314 337 310 320H330Q334 304 334 280Q334 257 330 240Q334 224 334 200Q334 177 330 160H360Q364 144 364 120Q364 97 360 80ZM246 280Q246 304 250 320H230Q226 337 226 360Q226 384 230 400H170Q174 384 174 360Q174 337 170 320H150Q154 304 154 280Q154 257 150 240H250Q246 257 246 280Z"/>
    <path transform="translate(1440, 0)" d="M364 440Q364 417 360 400Q364 384 364 360Q364 337 360 320Q364 304 364 280Q364 257 360 240Q364 224 364 200Q364 177 360 160Q364 144 364 120Q364 97 360 80Q364 64 364 40Q364 17 360 0H280Q276 17 276 40Q276 64 280 80H230Q226 97 226 120Q226 144 230 160H200Q196 177 196 200Q196 224 200 240H160Q156 257 156 280Q156 304 160 320H120Q124 304 124 280Q124 257 120 240Q124 224 124 200Q124 177 120 160Q124 144 124 120Q124 97 120 80Q124 64 124 40Q124 17 120 0H40Q36 17 36 40Q36 64 40 80Q36 97 36 120Q36 144 40 160Q36 177 36 200Q36 224 40 240Q36 257 36 280Q36 304 40 320Q36 337 36 360Q36 384 40 400Q36 417 36 440Q36 464 40 480Q36 497 36 520Q36 544 40 560H140Q144 544 144 520Q144 497 140 480H170Q174 464 174 440Q174 417 170 400H200Q204 384 204 360Q204 337 200 320H240Q244 304 244 280Q244 257 240 240H280Q276 257 276 280Q276 304 280 320Q276 337 276 360Q276 384 280 400Q276 417 276 440Q276 464 280 480Q276 497 276 520Q276 544 280 560H360Q364 544 364 520Q364 497 360 480Q364 464 364 440Z"/>
    <path transform="translate(1920, 0)" d="M364 200Q364 177 360 160Q364 144 364 120Q364 97 360 80H320Q324 64 324 40Q324 17 320 0H80Q76 17 76 40Q76 64 80 80H40Q36 97 36 120Q36 144 40 160H120Q124 144 124 120Q124 97 120 80H280Q276 97 276 120Q276 144 280 160Q276 177 276 200Q276 224 280 240H80Q76 257 76 280Q76 304 80 320H40Q36 337 36 360Q36 384 40 400Q36 417 36 440Q36 464 40 480H80Q76 497 76 520Q76 544 80 560H320Q324 544 324 520Q324 497 320 480H360Q364 464 364 440Q364 417 360 400H280Q276 417 276 440Q276 464 280 480H120Q124 464 124 440Q124 417 120 400Q124 384 124 360Q124 337 120 320H320Q324 304 324 280Q324 257 320 240H360Q364 224 364 200Z"/>
    <path transform="translate(2400, 0)" d="M160 240Q164 224 164 200Q164 177 160 160Q164 144 164 120Q164 97 160 80H320Q324 64 324 40Q324 17 320 0H80Q76 17 76 40Q76 64 80 80Q76 97 76 120Q76 144 80 160Q76 177 76 200Q76 224 80 240Q76 257 76 280Q76 304 80 320Q76 337 76 360Q76 384 80 400Q76 417 76 440Q76 464 80 480Q76 497 76 520Q76 544 80 560H320Q324 544 324 520Q324 497 320 480H160Q164 464 164 440Q164 417 160 400Q164 384 164 360Q164 337 160 320H320Q324 304 324 280Q324 257 320 240Z"/>
  </g>
</svg>
